<svg width="200" height="200" viewBox="0 0 200 200" fill="none" xmlns="http://www.w3.org/2000/svg">
  <!-- Background Circle -->
  <circle cx="100" cy="100" r="95" fill="url(#gradient)" />
  
  <!-- Lightning Bolt (Force) -->
  <path d="M110 40L75 100H95L85 140L120 85H100L110 40Z" fill="white" stroke="white" stroke-width="2" stroke-linejoin="round"/>
  
  <!-- Neural Network Pattern (AI) -->
  <!-- Nodes -->
  <circle cx="60" cy="70" r="4" fill="#22D3EE" opacity="0.8"/>
  <circle cx="140" cy="70" r="4" fill="#22D3EE" opacity="0.8"/>
  <circle cx="60" cy="130" r="4" fill="#22D3EE" opacity="0.8"/>
  <circle cx="140" cy="130" r="4" fill="#22D3EE" opacity="0.8"/>
  <circle cx="100" cy="50" r="4" fill="#22D3EE" opacity="0.8"/>
  <circle cx="100" cy="150" r="4" fill="#22D3EE" opacity="0.8"/>
  
  <!-- Connections -->
  <line x1="60" y1="70" x2="100" y2="50" stroke="#22D3EE" stroke-width="1.5" opacity="0.4"/>
  <line x1="140" y1="70" x2="100" y2="50" stroke="#22D3EE" stroke-width="1.5" opacity="0.4"/>
  <line x1="60" y1="130" x2="100" y2="150" stroke="#22D3EE" stroke-width="1.5" opacity="0.4"/>
  <line x1="140" y1="130" x2="100" y2="150" stroke="#22D3EE" stroke-width="1.5" opacity="0.4"/>
  <line x1="60" y1="70" x2="60" y2="130" stroke="#22D3EE" stroke-width="1.5" opacity="0.4"/>
  <line x1="140" y1="70" x2="140" y2="130" stroke="#22D3EE" stroke-width="1.5" opacity="0.4"/>
  
  <!-- Gradient Definition -->
  <defs>
    <linearGradient id="gradient" x1="0%" y1="0%" x2="100%" y2="100%">
      <stop offset="0%" style="stop-color:#0EA5E9;stop-opacity:1" />
      <stop offset="100%" style="stop-color:#06B6D4;stop-opacity:1" />
    </linearGradient>
  </defs>
</svg>
